<svg width="21" height="31" viewBox="0 0 21 31" fill="none" xmlns="http://www.w3.org/2000/svg">
<path d="M10.2189 0.976655C12.0923 1.63019 13.8186 2.64633 15.2993 3.96704C16.78 5.28776 17.9861 6.88719 18.8487 8.67402C19.7113 10.4608 20.2135 12.4001 20.3266 14.381C20.4397 16.3619 20.1616 18.3457 19.5081 20.2191C18.8545 22.0925 17.8384 23.8189 16.5177 25.2996C15.197 26.7803 13.5975 27.9864 11.8107 28.8489C10.0239 29.7115 8.08465 30.2137 6.10374 30.3268C4.12283 30.44 2.13904 30.1618 0.265625 29.5083L2.56077 22.9291C3.57019 23.2812 4.63909 23.4311 5.70643 23.3702C6.77377 23.3092 7.81866 23.0386 8.78143 22.5738C9.74419 22.1091 10.606 21.4592 11.3176 20.6614C12.0292 19.8636 12.5767 18.9334 12.9289 17.924C13.281 16.9145 13.4309 15.8456 13.3699 14.7783C13.309 13.7109 13.0384 12.6661 12.5736 11.7033C12.1088 10.7405 11.459 9.87873 10.6611 9.16711C9.86332 8.45549 8.93314 7.90798 7.92372 7.55585L10.2189 0.976655Z" fill="url(#paint0_linear)"/>
<defs>
<linearGradient id="paint0_linear" x1="6.6524" y1="-0.2675" x2="15.4975" y2="26.3319" gradientUnits="userSpaceOnUse">
<stop stop-color="#65FDF0"/>
<stop offset="1" stop-color="#1D6FA3"/>
</linearGradient>
</defs>
</svg>
