<svg width="112" height="47" viewBox="0 0 112 47" fill="none" xmlns="http://www.w3.org/2000/svg">
<g filter="url(#filter0_d)">
<path d="M93.2189 8.97665C95.0923 9.63019 96.8186 10.6463 98.2993 11.967C99.78 13.2878 100.986 14.8872 101.849 16.674C102.711 18.4608 103.213 20.4001 103.327 22.381C103.44 24.3619 103.162 26.3457 102.508 28.2191C101.855 30.0925 100.838 31.8189 99.5177 33.2996C98.197 34.7803 96.5975 35.9864 94.8107 36.8489C93.0239 37.7115 91.0846 38.2137 89.1037 38.3268C87.1228 38.44 85.139 38.1618 83.2656 37.5083L85.5608 30.9291C86.5702 31.2812 87.6391 31.4311 88.7064 31.3702C89.7738 31.3092 90.8187 31.0386 91.7814 30.5738C92.7442 30.1091 93.606 29.4592 94.3176 28.6614C95.0292 27.8636 95.5767 26.9334 95.9289 25.924C96.281 24.9145 96.4309 23.8456 96.3699 22.7783C96.309 21.7109 96.0384 20.6661 95.5736 19.7033C95.1088 18.7405 94.459 17.8787 93.6611 17.1671C92.8633 16.4555 91.9331 15.908 90.9237 15.5558L93.2189 8.97665Z" fill="url(#paint0_linear)"/>
</g>
<path d="M11.9 14H15.4L10.32 28H5.3L0.3 14H3.88L7.86 26.14L11.9 14ZM20.7631 25.32H29.6631V28H17.3231V14H29.3231V16.68H20.7631V19.62H27.4631V22.14H20.7631V25.32ZM33.9948 23.18C34.1682 24.8067 35.4082 25.62 37.7148 25.62C38.5815 25.62 39.3215 25.5067 39.9348 25.28C40.5482 25.0533 40.8548 24.7 40.8548 24.22C40.8548 23.8733 40.6882 23.5933 40.3548 23.38C40.0348 23.1667 39.5015 22.9533 38.7548 22.74L34.8548 21.68C32.5348 21.04 31.3748 19.7733 31.3748 17.88C31.3748 16.9467 31.6548 16.16 32.2148 15.52C32.7882 14.88 33.5015 14.4267 34.3548 14.16C35.2215 13.8933 36.2015 13.76 37.2948 13.76C39.1082 13.76 40.6015 14.16 41.7748 14.96C42.9615 15.7467 43.6215 16.86 43.7548 18.3L40.5148 18.46C40.4348 17.86 40.1215 17.3667 39.5748 16.98C39.0415 16.58 38.2548 16.38 37.2148 16.38C36.4548 16.38 35.8615 16.4933 35.4348 16.72C35.0082 16.9467 34.7948 17.2533 34.7948 17.64C34.7948 17.96 34.9415 18.2333 35.2348 18.46C35.5282 18.6733 35.9882 18.8667 36.6148 19.04L40.3348 20.04C41.6548 20.3867 42.6415 20.86 43.2948 21.46C43.9482 22.06 44.2748 22.8867 44.2748 23.94C44.2748 25.38 43.6815 26.46 42.4948 27.18C41.3215 27.8867 39.7148 28.24 37.6748 28.24C35.5015 28.24 33.8348 27.82 32.6748 26.98C31.5148 26.14 30.8815 24.9133 30.7748 23.3L33.9948 23.18ZM54.2414 14C55.2547 14 56.1481 14.1467 56.9214 14.44C57.7081 14.72 58.3614 15.22 58.8814 15.94C59.4014 16.6467 59.6614 17.5267 59.6614 18.58C59.6614 19.6333 59.4081 20.5 58.9014 21.18C58.4081 21.8467 57.7747 22.3133 57.0014 22.58C56.2414 22.8333 55.3414 22.96 54.3014 22.96H50.0014V28H46.5614V14H54.2414ZM53.9414 20.34C55.4614 20.34 56.2214 19.7533 56.2214 18.58C56.2214 17.4067 55.4614 16.82 53.9414 16.82H50.0014V20.34H53.9414ZM65.392 25.32H74.292V28H61.952V14H73.952V16.68H65.392V19.62H72.092V22.14H65.392V25.32ZM86.5367 28L82.4367 22.8H80.1967V28H76.7567V14H84.6367C86.1967 14 87.4901 14.3733 88.5167 15.12C89.5434 15.8533 90.0567 16.98 90.0567 18.5C90.0567 20.9133 88.7634 22.3133 86.1767 22.7L90.7367 28H86.5367ZM80.1967 16.74V20.22H84.3567C85.0634 20.22 85.6167 20.08 86.0167 19.8C86.4167 19.5067 86.6167 19.0733 86.6167 18.5C86.6167 17.9267 86.4167 17.4933 86.0167 17.2C85.6167 16.8933 85.0634 16.74 84.3567 16.74H80.1967Z" fill="white"/>
<defs>
<filter id="filter0_d" x="75.2656" y="0.976562" width="36.0856" height="45.3748" filterUnits="userSpaceOnUse" color-interpolation-filters="sRGB">
<feFlood flood-opacity="0" result="BackgroundImageFix"/>
<feColorMatrix in="SourceAlpha" type="matrix" values="0 0 0 0 0 0 0 0 0 0 0 0 0 0 0 0 0 0 127 0"/>
<feOffset/>
<feGaussianBlur stdDeviation="4"/>
<feColorMatrix type="matrix" values="0 0 0 0 0.0117647 0 0 0 0 0.486275 0 0 0 0 0.678431 0 0 0 0.85 0"/>
<feBlend mode="normal" in2="BackgroundImageFix" result="effect1_dropShadow"/>
<feBlend mode="normal" in="SourceGraphic" in2="effect1_dropShadow" result="shape"/>
</filter>
<linearGradient id="paint0_linear" x1="89.6524" y1="7.7325" x2="98.4975" y2="34.3319" gradientUnits="userSpaceOnUse">
<stop stop-color="#65FDF0"/>
<stop offset="1" stop-color="#1D6FA3"/>
</linearGradient>
</defs>
</svg>
